# xmcd CD database file
#
# Track frame offsets:
#	150
#	26047
#	48479
#	82279
#	109404
#	136506
#	159606
#	187226
#	205343
#	236830
#	260202
#	286007
#	306469
#	332021
#
# Disc length: 4747 seconds
#
# Revision: 0
# Processed by: cddbd v1.4PL0 Copyright (c) Steve Scherf et al.
# Submitted via: CDex 1.50beta10
#
DISCID=da12890e
DTITLE=Tino Izzo - Smooth Instrumental Guitar
DYEAR=1900
DGENRE=Blues
TTITLE0=Samba del vieto
TTITLE1=Her Song
TTITLE2=Nympheas
TTITLE3=A hero's goodbye
TTITLE4=This is not a pipe
TTITLE5=Blue Desires
TTITLE6=The field of Blue Children
TTITLE7=New adventures in Johnny Guitar
TTITLE8=One hundred years of Solitude
TTITLE9=Four september suns
TTITLE10=Earth Calling
TTITLE11=Dami La Forza
TTITLE12=Foreign Skies
TTITLE13=The Rage
EXTD=
EXTT0=
EXTT1=
EXTT2=
EXTT3=
EXTT4=
EXTT5=
EXTT6=
EXTT7=
EXTT8=
EXTT9=
EXTT10=
EXTT11=
EXTT12=
EXTT13=
PLAYORDER=
